<svg xmlns="http://www.w3.org/2000/svg" xmlns:xlink="http://www.w3.org/1999/xlink" width="554" zoomAndPan="magnify" viewBox="0 0 415.5 197.999996" height="264" preserveAspectRatio="xMidYMid meet" version="1.0"><defs><clipPath id="6bbd40ca3e"><path d="M 0 0.117188 L 415 0.117188 L 415 197.878906 L 0 197.878906 Z M 0 0.117188 " clip-rule="nonzero"/></clipPath><clipPath id="16f4fe9f02"><path d="M 78 28.34375 L 352 28.34375 L 352 169.921875 L 78 169.921875 Z M 78 28.34375 " clip-rule="nonzero"/></clipPath></defs><g clip-path="url(#6bbd40ca3e)"><path fill="#ffffff" d="M 0 0.117188 L 415 0.117188 L 415 197.882812 L 0 197.882812 Z M 0 0.117188 " fill-opacity="1" fill-rule="nonzero"/><path fill="#ffffff" d="M 0 0.117188 L 415 0.117188 L 415 197.882812 L 0 197.882812 Z M 0 0.117188 " fill-opacity="1" fill-rule="nonzero"/></g><path fill="#ffffff" d="M 209.5 30.011719 C 155.957031 30.011719 121.109375 44.324219 119.644531 44.964844 L 116.117188 46.433594 L 117.441406 48.542969 C 115.875 48.050781 114.0625 47.707031 112.15625 47.707031 C 104.519531 47.707031 99.378906 51.433594 95.21875 54.425781 C 92.773438 56.1875 90.621094 57.757812 88.90625 57.757812 C 86.902344 57.757812 86.019531 57.367188 85.675781 57.21875 L 79.902344 54.425781 L 79.902344 88.300781 L 83.769531 87.121094 C 83.769531 87.121094 83.816406 87.121094 83.816406 87.121094 C 83.914062 87.121094 84.011719 87.121094 84.011719 87.171875 C 84.011719 87.171875 84.257812 87.5625 84.257812 88.742188 L 84.257812 126.636719 C 84.304688 127.421875 84.109375 128.890625 83.671875 129.382812 C 83.621094 129.429688 83.523438 129.527344 83.082031 129.527344 L 79.902344 129.527344 L 79.902344 166.589844 L 85.726562 160.953125 C 85.726562 160.953125 88.269531 157.714844 92.234375 156.246094 C 94.046875 155.558594 96.003906 155.511719 98.449219 155.414062 C 101.484375 155.265625 105.304688 155.117188 110 153.695312 C 118.957031 150.949219 123.753906 147.8125 127.132812 137.421875 C 129.285156 130.800781 129.871094 125.261719 130.019531 122.371094 C 134.128906 120.558594 144.847656 116.09375 157.621094 112.8125 C 169.859375 109.671875 180.773438 108.054688 185.570312 107.417969 C 186.890625 110.507812 189.484375 113.9375 193.742188 114.378906 C 195.0625 114.527344 197.070312 114.574219 199.859375 114.574219 C 206.222656 114.574219 214.542969 114.234375 214.640625 114.234375 L 220.511719 114.378906 L 215.863281 108.007812 C 215.617188 107.8125 214.933594 107.222656 214.152344 105.851562 C 222.375 106.046875 239.945312 106.976562 254.917969 110.652344 C 275.132812 115.605469 291.722656 123.253906 291.921875 123.300781 C 292.214844 123.449219 295.199219 124.820312 299.113281 124.917969 L 299.113281 149.332031 L 302.003906 149.628906 C 302.492188 149.675781 306.847656 150.167969 308.609375 150.167969 C 308.804688 150.167969 309 150.167969 309.195312 150.167969 C 309.441406 150.214844 310.078125 150.609375 311.496094 152.226562 L 311.691406 152.472656 L 311.9375 152.667969 C 315.316406 155.3125 319.179688 156.6875 323.488281 156.6875 C 324.566406 156.6875 325.691406 156.589844 326.863281 156.441406 C 337.144531 155.214844 347.761719 145.3125 347.761719 130.851562 C 348.058594 121.78125 344.386719 108.839844 336.847656 92.417969 L 347.078125 67.023438 L 349.28125 61.53125 L 343.457031 62.660156 C 343.457031 62.660156 341.988281 62.953125 340.375 62.953125 C 338.613281 62.953125 338.121094 62.609375 338.121094 62.609375 C 337.828125 62.414062 337.4375 62.070312 336.949219 61.730469 C 332.542969 58.394531 327.453125 54.867188 323 54.375 C 322.3125 54.277344 321.628906 54.277344 320.941406 54.277344 C 319.425781 54.277344 318.054688 54.472656 316.980469 54.71875 C 315.609375 52.660156 313.015625 50.160156 307.972656 48.296875 C 307.433594 48.101562 306.796875 47.855469 306.015625 47.5625 C 294.515625 43.148438 260.011719 30.011719 209.5 30.011719 Z M 209.5 30.011719 " fill-opacity="1" fill-rule="nonzero"/><g clip-path="url(#16f4fe9f02)"><path fill="#000000" d="M 78.679688 169.433594 L 78.679688 128.253906 L 82.9375 128.253906 C 83.035156 127.859375 83.132812 127.175781 83.132812 126.636719 L 83.132812 88.691406 C 83.132812 88.644531 83.132812 88.59375 83.132812 88.59375 L 78.726562 89.917969 L 78.726562 52.464844 L 86.363281 56.140625 C 86.507812 56.1875 87.195312 56.53125 89.003906 56.53125 C 90.328125 56.53125 92.382812 55.011719 94.585938 53.445312 C 98.890625 50.304688 104.226562 46.484375 112.253906 46.484375 C 113.132812 46.484375 114.015625 46.53125 114.945312 46.679688 L 114.453125 45.894531 L 119.300781 43.882812 C 120.769531 43.246094 155.859375 28.835938 209.648438 28.835938 C 260.253906 28.785156 294.90625 41.972656 306.261719 46.335938 L 306.359375 46.382812 C 307.09375 46.679688 307.679688 46.875 308.21875 47.070312 C 312.328125 48.589844 315.414062 50.648438 317.371094 53.296875 C 319.179688 52.953125 321.089844 52.90625 322.949219 53.101562 C 327.695312 53.589844 332.933594 57.316406 337.484375 60.699219 C 337.925781 60.992188 338.269531 61.289062 338.511719 61.484375 C 338.660156 61.53125 339.148438 61.679688 340.175781 61.679688 C 341.644531 61.679688 343.015625 61.433594 343.015625 61.433594 L 351.042969 59.914062 L 337.976562 92.320312 C 345.464844 108.691406 349.085938 121.636719 348.792969 130.800781 C 348.792969 137.714844 346.34375 144.332031 341.890625 149.332031 C 337.828125 153.890625 332.347656 156.882812 326.816406 157.570312 C 325.640625 157.765625 324.46875 157.863281 323.292969 157.863281 C 318.742188 157.863281 314.628906 156.441406 311.007812 153.597656 L 310.617188 153.253906 L 310.421875 153.011719 C 309.492188 151.929688 309 151.539062 308.804688 151.390625 C 308.707031 151.390625 308.609375 151.390625 308.511719 151.390625 C 306.601562 151.390625 302.003906 150.902344 301.808594 150.851562 L 297.84375 150.410156 L 297.84375 126.046875 C 294.269531 125.753906 291.675781 124.527344 291.332031 124.378906 C 290.648438 124.085938 274.398438 116.683594 254.578125 111.78125 C 241.3125 108.496094 226.042969 107.46875 216.695312 107.125 L 222.910156 115.605469 L 214.589844 115.359375 C 213.515625 115.410156 205.78125 115.703125 199.8125 115.703125 C 196.972656 115.703125 194.917969 115.65625 193.546875 115.507812 C 188.75 115.015625 186.105469 111.339844 184.785156 108.691406 C 179.304688 109.429688 169.171875 111.046875 157.867188 113.9375 C 145.828125 117.027344 135.597656 121.195312 131.144531 123.105469 C 130.898438 126.097656 130.261719 131.441406 128.257812 137.714844 C 124.78125 148.597656 119.496094 151.980469 110.34375 154.824219 C 105.449219 156.34375 101.582031 156.492188 98.449219 156.589844 C 96.101562 156.6875 94.242188 156.785156 92.578125 157.375 C 89.003906 158.695312 86.65625 161.636719 86.65625 161.6875 L 86.558594 161.835938 Z M 81.125 130.753906 L 81.125 163.695312 L 84.796875 160.117188 C 85.285156 159.53125 87.878906 156.539062 91.746094 155.117188 C 93.753906 154.382812 95.757812 154.285156 98.351562 154.1875 C 101.339844 154.039062 105.058594 153.890625 109.609375 152.519531 C 118.320312 149.871094 122.726562 146.980469 125.90625 137.027344 C 128.011719 130.460938 128.597656 124.96875 128.746094 122.273438 L 128.796875 121.539062 L 129.480469 121.242188 C 133.542969 119.429688 144.359375 114.917969 157.28125 111.632812 C 169.367188 108.546875 180.039062 106.929688 185.371094 106.242188 L 186.300781 106.144531 L 186.695312 106.976562 C 187.625 109.132812 189.777344 112.761719 193.839844 113.203125 C 195.113281 113.351562 197.070312 113.398438 199.859375 113.398438 C 205.878906 113.398438 213.710938 113.105469 214.542969 113.054688 L 214.640625 113.054688 L 218.015625 113.152344 L 214.933594 108.9375 C 214.492188 108.59375 213.808594 107.859375 213.074219 106.535156 L 211.996094 104.671875 L 214.152344 104.722656 C 223.105469 104.96875 240.335938 105.898438 255.164062 109.527344 C 275.230469 114.476562 291.675781 121.929688 292.359375 122.273438 C 292.507812 122.320312 295.347656 123.695312 299.066406 123.792969 L 300.242188 123.839844 L 300.242188 148.351562 L 302.050781 148.550781 C 303.667969 148.746094 307.09375 149.089844 308.511719 149.089844 C 308.707031 149.089844 308.855469 149.089844 309 149.089844 L 309.195312 149.089844 L 309.394531 149.136719 C 309.882812 149.285156 310.664062 149.628906 312.328125 151.539062 L 312.476562 151.6875 L 312.621094 151.785156 C 316.585938 154.921875 321.285156 156.097656 326.570312 155.3125 C 336.359375 154.136719 346.441406 144.726562 346.441406 130.949219 C 346.734375 122.027344 343.113281 109.28125 335.625 93.054688 L 335.429688 92.5625 L 347.226562 63.25 L 343.605469 63.933594 C 343.261719 63.984375 341.792969 64.230469 340.277344 64.230469 C 338.316406 64.230469 337.535156 63.835938 337.289062 63.691406 C 336.949219 63.445312 336.554688 63.152344 336.117188 62.808594 C 331.808594 59.570312 326.914062 56.089844 322.753906 55.648438 C 320.84375 55.453125 318.9375 55.550781 317.175781 55.945312 L 316.34375 56.140625 L 315.851562 55.453125 C 314.238281 53.003906 311.300781 50.945312 307.433594 49.523438 C 306.945312 49.324219 306.308594 49.082031 305.574219 48.835938 L 305.476562 48.785156 C 294.21875 44.472656 259.910156 31.433594 209.597656 31.433594 C 156.300781 31.433594 121.648438 45.648438 120.230469 46.285156 L 118.027344 47.21875 L 120.378906 50.945312 L 117.195312 49.914062 C 115.53125 49.375 113.867188 49.082031 112.300781 49.082031 C 105.058594 49.082031 100.066406 52.707031 96.101562 55.601562 C 93.457031 57.511719 91.207031 59.179688 89.101562 59.179688 C 87.046875 59.179688 85.921875 58.835938 85.335938 58.492188 L 81.273438 56.53125 L 81.273438 86.78125 L 83.769531 86.042969 L 84.011719 86.042969 C 84.207031 86.042969 84.453125 86.042969 84.699219 86.191406 L 86.800781 87.121094 L 85.578125 87.859375 C 85.628906 88.152344 85.628906 88.496094 85.628906 88.886719 L 85.628906 126.683594 C 85.675781 127.421875 85.628906 129.429688 84.699219 130.410156 C 84.355469 130.800781 83.867188 130.949219 83.230469 130.949219 Z M 81.125 130.753906 " fill-opacity="1" fill-rule="nonzero"/></g><path fill="#ee3425" d="M 254.820312 42.953125 C 253.941406 41.972656 249.535156 38.539062 241.753906 39.421875 C 233.972656 40.304688 235.148438 50.847656 235.148438 50.847656 C 235.148438 50.847656 235.246094 81.4375 235.246094 87.808594 C 235.246094 94.183594 240.1875 96.828125 249.292969 97.367188 C 258.542969 97.90625 257.414062 87.90625 257.414062 87.90625 C 257.414062 87.90625 257.515625 57.757812 257.515625 52.5625 C 257.5625 47.464844 255.703125 43.933594 254.820312 42.953125 Z M 249.195312 53.101562 L 249.09375 84.230469 C 249.09375 84.230469 249.730469 88.542969 246.699219 87.664062 C 243.613281 86.78125 243.613281 85.261719 243.613281 83.152344 L 243.613281 51.335938 C 243.613281 51.335938 243.515625 47.804688 246.453125 48.492188 C 249.4375 49.128906 249.195312 53.101562 249.195312 53.101562 Z M 249.195312 53.101562 " fill-opacity="1" fill-rule="nonzero"/><path fill="#ee3425" d="M 234.363281 43.933594 C 234.804688 41.382812 236.320312 38.640625 236.320312 38.640625 C 231.28125 37.757812 226.632812 37.855469 226.632812 37.855469 C 228.394531 39.082031 227.414062 44.324219 227.414062 44.324219 L 223.007812 75.015625 C 223.007812 75.015625 221.246094 46.089844 221.050781 43.640625 C 220.808594 41.238281 222.128906 37.460938 222.128906 37.460938 C 209.941406 36.382812 208.277344 37.363281 208.277344 37.363281 C 209.0625 38.148438 208.621094 43.542969 208.621094 43.542969 L 205.339844 74.917969 C 205.339844 74.917969 202.601562 43.785156 202.601562 41.777344 C 202.601562 39.816406 203.921875 37.167969 203.921875 37.167969 C 201.179688 37.070312 191.292969 37.363281 191.292969 37.363281 C 191.441406 37.363281 191.636719 37.414062 191.785156 37.511719 C 189.09375 37.660156 185.714844 37.855469 184.296875 38.246094 C 184.296875 38.246094 185.371094 39.667969 185.273438 41.53125 C 185.175781 43.394531 179.792969 60.257812 179.792969 60.257812 L 179.890625 41.238281 C 179.890625 41.238281 180.773438 39.03125 181.410156 38.6875 C 181.410156 38.6875 174.753906 38.882812 168.730469 40.109375 L 168.730469 40.011719 C 166.871094 40.011719 165.304688 41.679688 163.007812 41.972656 C 160.707031 42.316406 159.140625 40.109375 153.902344 42.414062 C 147.101562 45.402344 146.855469 52.5625 146.855469 52.5625 C 146.855469 52.5625 146.316406 75.355469 146.660156 82.808594 C 147 90.308594 147.539062 100.949219 157.328125 100.210938 C 167.117188 99.425781 167.851562 91.730469 168.195312 86.339844 C 168.535156 80.945312 165.355469 78.398438 163.789062 77.957031 C 162.273438 77.515625 159.921875 77.515625 160.609375 78.738281 C 161.292969 79.964844 164.132812 89.28125 159.1875 90.605469 C 154.246094 91.925781 155.664062 72.21875 155.664062 72.21875 C 155.664062 72.21875 154.6875 57.953125 156.644531 52.609375 C 157.082031 51.484375 157.914062 50.945312 158.601562 50.847656 C 163.738281 50.109375 164.867188 59.230469 164.867188 59.230469 L 168.585938 40.699219 C 169.320312 41.628906 170.691406 43.785156 170.691406 46.484375 C 170.691406 50.109375 170.492188 92.023438 170.492188 92.023438 C 170.492188 92.023438 170.394531 95.996094 169.710938 97.074219 C 169.710938 97.074219 178.960938 95.40625 181.261719 95.40625 C 181.261719 95.40625 180.136719 93.886719 179.941406 91.535156 C 179.695312 89.230469 179.5 68.296875 179.5 68.296875 L 189.628906 97.90625 C 189.628906 97.90625 191.148438 103.203125 194.671875 102.613281 C 198.195312 102.074219 200.9375 101.828125 201.816406 102.171875 C 201.816406 102.171875 199.710938 99.625 198.980469 98.007812 C 198.195312 96.339844 186.546875 61.582031 186.546875 61.582031 L 193.105469 41.335938 C 193.253906 42.316406 193.300781 43.050781 193.300781 43.050781 C 193.300781 43.050781 199.222656 85.210938 199.125 88.152344 C 199.027344 91.144531 198.441406 94.183594 198.441406 94.183594 C 202.40625 93.203125 211.3125 93.542969 211.3125 93.542969 C 210.773438 92.761719 210.429688 86.191406 210.429688 86.191406 L 213.515625 57.90625 C 213.515625 57.90625 216.449219 84.476562 216.695312 87.515625 C 216.890625 90.0625 216.058594 93.691406 216.058594 93.691406 C 217.28125 93.445312 227.707031 94.328125 227.707031 94.328125 C 227.070312 93.003906 227.609375 87.171875 227.609375 87.171875 C 227.609375 87.171875 233.921875 46.484375 234.363281 43.933594 Z M 234.363281 43.933594 " fill-opacity="1" fill-rule="nonzero"/><path fill="#ee3425" d="M 139.757812 49.425781 C 139.757812 48.199219 140.296875 45.894531 140.296875 45.894531 C 133.394531 46.875 125.125 50.304688 125.125 50.304688 C 127.425781 51.726562 126.640625 56.679688 126.640625 56.679688 C 126.640625 56.679688 122.042969 98.839844 121.160156 105.113281 C 120.816406 107.566406 120.230469 109.429688 119.644531 110.800781 C 118.761719 103.742188 116.363281 98.988281 111.566406 98.007812 C 111.566406 98.007812 118.320312 93.691406 119.007812 86.140625 C 119.644531 78.542969 119.347656 70.945312 118.664062 65.847656 C 118.027344 60.75 116.019531 56.289062 109.414062 56.289062 C 102.808594 56.289062 100.359375 58.933594 96.050781 62.414062 C 91.746094 65.894531 88.320312 66.53125 86.167969 65.0625 L 86.167969 77.957031 C 86.167969 77.957031 90.765625 76.140625 90.765625 81.238281 L 90.765625 128.449219 C 90.765625 128.449219 90.765625 135.214844 86.167969 135.214844 L 86.167969 147.714844 C 86.167969 147.714844 88.125 143.597656 93.066406 143.597656 C 98.011719 143.597656 107.40625 143.941406 111.371094 140.3125 C 115.335938 136.683594 119.59375 131.734375 119.9375 119.820312 C 119.984375 117.273438 119.9375 114.917969 119.789062 112.714844 C 124.242188 110.3125 128.011719 109.332031 128.011719 109.332031 C 127.375 104.574219 129.234375 91.828125 129.234375 91.828125 C 133.101562 89.425781 136.136719 89.523438 136.136719 89.523438 C 137.898438 95.898438 137.457031 105.703125 137.457031 105.703125 C 142.644531 103.496094 148.664062 101.828125 148.664062 101.828125 C 147.148438 100.308594 145.828125 94.132812 145.828125 94.132812 C 145.828125 94.132812 139.757812 50.648438 139.757812 49.425781 Z M 101.09375 71.632812 C 101.09375 71.632812 102.757812 67.660156 105.203125 67.660156 C 105.203125 67.660156 108.828125 67.171875 108.828125 74.574219 C 108.828125 82.023438 109.316406 88.9375 107.652344 91.386719 C 107.066406 92.269531 106.378906 93.445312 105.15625 93.691406 C 103.34375 94.035156 101.042969 92.808594 101.042969 90.210938 L 101.042969 71.632812 Z M 108.09375 129.722656 C 107.503906 130.605469 106.429688 131.78125 105.253906 132.027344 C 103.441406 132.371094 101.144531 131.144531 101.144531 128.546875 L 101.144531 106.929688 C 101.144531 106.929688 102.808594 102.957031 105.253906 102.957031 C 105.253906 102.957031 109.265625 102.46875 109.265625 109.871094 C 109.21875 117.371094 109.707031 127.273438 108.09375 129.722656 Z M 130.3125 83.542969 L 132.855469 60.894531 L 135.253906 81.386719 Z M 130.3125 83.542969 " fill-opacity="1" fill-rule="nonzero"/><path fill="#ee3425" d="M 281.25 48.886719 C 280.371094 47.855469 275.964844 44.128906 268.183594 44.523438 C 260.402344 44.863281 261.574219 55.550781 261.574219 55.550781 C 261.574219 55.550781 261.675781 85.898438 261.675781 92.269531 C 261.675781 98.644531 266.617188 102.859375 275.71875 103.988281 C 284.96875 105.113281 283.84375 92.515625 283.84375 92.515625 C 283.84375 92.515625 283.941406 63.933594 283.941406 58.789062 C 283.992188 53.589844 282.132812 49.914062 281.25 48.886719 Z M 275.671875 58.640625 L 275.574219 90.75 C 275.574219 90.75 276.210938 95.066406 273.175781 93.984375 C 270.09375 92.90625 270.09375 91.386719 270.09375 89.28125 L 270.09375 56.53125 C 270.09375 56.53125 269.992188 53.003906 272.929688 53.835938 C 275.867188 54.667969 275.671875 58.640625 275.671875 58.640625 Z M 275.671875 58.640625 " fill-opacity="1" fill-rule="nonzero"/><path fill="#ee3425" d="M 309.980469 97.664062 L 309.980469 74.230469 C 309.980469 69.035156 309.539062 65.308594 307.679688 59.816406 C 305.574219 53.640625 296.570312 52.023438 296.570312 52.023438 L 286.78125 49.03125 C 288.445312 50.699219 288.152344 58.394531 288.152344 58.394531 L 288.152344 101.878906 C 288.152344 105.75 284.921875 108.152344 284.921875 108.152344 C 284.921875 108.152344 288.199219 107.710938 293.046875 110.554688 C 302.34375 116.046875 305.867188 110.996094 307.238281 109.332031 C 310.421875 105.359375 309.980469 97.664062 309.980469 97.664062 Z M 301.953125 97.664062 C 301.953125 97.664062 301.953125 103.691406 299.652344 103.691406 C 296.914062 103.691406 296.128906 102.613281 296.128906 102.613281 L 296.128906 60.992188 C 296.128906 60.992188 301.953125 61.875 301.953125 66.140625 Z M 301.953125 97.664062 " fill-opacity="1" fill-rule="nonzero"/><path fill="#ee3425" d="M 325.25 95.164062 C 325.25 95.164062 319.179688 78.152344 322.507812 75.554688 C 325.835938 72.957031 329.460938 78.152344 330.78125 88.347656 L 338.757812 69.179688 C 338.757812 69.179688 337.4375 70.0625 336.015625 69.179688 C 334.550781 68.296875 330.488281 65.257812 328.480469 63.492188 C 326.472656 61.730469 319.035156 60.894531 315.558594 63.640625 C 312.085938 66.386719 309.34375 70.601562 310.324219 79.621094 C 311.351562 88.644531 315.558594 101.535156 318.59375 109.132812 C 321.628906 116.683594 325.398438 128.597656 321.1875 129.332031 C 316.980469 130.066406 312.769531 127.714844 308.855469 116.832031 L 308.855469 138.351562 C 308.855469 138.351562 310.859375 137.46875 312.035156 137.765625 C 313.210938 138.058594 319.132812 144.871094 324.957031 143.746094 C 330.78125 142.566406 335.820312 138.644531 334.84375 127.175781 C 333.816406 115.65625 325.25 95.164062 325.25 95.164062 Z M 325.25 95.164062 " fill-opacity="1" fill-rule="nonzero"/></svg>